<svg width="79" height="21" viewBox="0 0 79 21" fill="none" xmlns="http://www.w3.org/2000/svg">
<path d="M4.959 16.82H11.455V20.648H-2.57045e-07V0.290002H4.959V16.82ZM23.4483 20.851C21.5343 20.851 19.775 20.4063 18.1703 19.517C16.585 18.6277 15.3186 17.3903 14.3713 15.805C13.4433 14.2003 12.9793 12.4023 12.9793 10.411C12.9793 8.41967 13.4433 6.63133 14.3713 5.046C15.3186 3.46067 16.585 2.22334 18.1703 1.334C19.775 0.444669 21.5343 2.26498e-06 23.4483 2.26498e-06C25.3623 2.26498e-06 27.112 0.444669 28.6973 1.334C30.302 2.22334 31.5586 3.46067 32.4673 5.046C33.3953 6.63133 33.8593 8.41967 33.8593 10.411C33.8593 12.4023 33.3953 14.2003 32.4673 15.805C31.5393 17.3903 30.2826 18.6277 28.6973 19.517C27.112 20.4063 25.3623 20.851 23.4483 20.851ZM23.4483 16.327C25.0723 16.327 26.3676 15.7857 27.3343 14.703C28.3203 13.6203 28.8133 12.1897 28.8133 10.411C28.8133 8.613 28.3203 7.18234 27.3343 6.119C26.3676 5.03633 25.0723 4.495 23.4483 4.495C21.805 4.495 20.4903 5.02667 19.5043 6.09C18.5376 7.15334 18.0543 8.59367 18.0543 10.411C18.0543 12.209 18.5376 13.6493 19.5043 14.732C20.4903 15.7953 21.805 16.327 23.4483 16.327ZM50.1322 6.728C49.7648 6.05133 49.2332 5.539 48.5372 5.191C47.8605 4.82367 47.0582 4.64 46.1302 4.64C44.5255 4.64 43.2398 5.17167 42.2732 6.235C41.3065 7.279 40.8232 8.68067 40.8232 10.44C40.8232 12.3153 41.3258 13.7847 42.3312 14.848C43.3558 15.892 44.7575 16.414 46.5362 16.414C47.7542 16.414 48.7788 16.1047 49.6102 15.486C50.4608 14.8673 51.0795 13.978 51.4662 12.818H45.1732V9.164H55.9612V13.775C55.5938 15.0123 54.9655 16.1627 54.0762 17.226C53.2062 18.2893 52.0945 19.1497 50.7412 19.807C49.3878 20.4643 47.8605 20.793 46.1592 20.793C44.1485 20.793 42.3505 20.358 40.7652 19.488C39.1992 18.5987 37.9715 17.371 37.0822 15.805C36.2122 14.239 35.7772 12.4507 35.7772 10.44C35.7772 8.42934 36.2122 6.641 37.0822 5.075C37.9715 3.48967 39.1992 2.262 40.7652 1.392C42.3312 0.502668 44.1195 0.0580015 46.1302 0.0580015C48.5662 0.0580015 50.6155 0.647668 52.2782 1.827C53.9602 3.00634 55.0718 4.64 55.6132 6.728H50.1322ZM68.336 20.851C66.422 20.851 64.6627 20.4063 63.058 19.517C61.4727 18.6277 60.2063 17.3903 59.259 15.805C58.331 14.2003 57.867 12.4023 57.867 10.411C57.867 8.41967 58.331 6.63133 59.259 5.046C60.2063 3.46067 61.4727 2.22334 63.058 1.334C64.6627 0.444669 66.422 2.26498e-06 68.336 2.26498e-06C70.25 2.26498e-06 71.9997 0.444669 73.585 1.334C75.1897 2.22334 76.4463 3.46067 77.355 5.046C78.283 6.63133 78.747 8.41967 78.747 10.411C78.747 12.4023 78.283 14.2003 77.355 15.805C76.427 17.3903 75.1703 18.6277 73.585 19.517C71.9997 20.4063 70.25 20.851 68.336 20.851ZM68.336 16.327C69.96 16.327 71.2553 15.7857 72.222 14.703C73.208 13.6203 73.701 12.1897 73.701 10.411C73.701 8.613 73.208 7.18234 72.222 6.119C71.2553 5.03633 69.96 4.495 68.336 4.495C66.6927 4.495 65.378 5.02667 64.392 6.09C63.4253 7.15334 62.942 8.59367 62.942 10.411C62.942 12.209 63.4253 13.6493 64.392 14.732C65.378 15.7953 66.6927 16.327 68.336 16.327Z" fill="#1090CB"/>
</svg>
