<svg width="83" height="83" viewBox="0 0 83 83" fill="none" xmlns="http://www.w3.org/2000/svg">
<rect width="83" height="83" rx="20" fill="#ECFFDA"/>
<g clip-path="url(#clip0_2_55)">
<path d="M56.7197 40.6592L42.5987 26.5381C41.6069 25.5464 40.2885 25 38.886 25H28C26.3454 25 25 26.3454 25 28V38.886C25 40.2886 25.5464 41.607 26.5381 42.5987L40.6592 56.7197C41.4729 57.5335 42.5994 58 43.75 58C44.9006 58 46.027 57.5335 46.8408 56.7197L56.7197 46.8408C57.5334 46.0271 57.9999 44.9006 57.9999 43.75C57.9999 42.5994 57.5335 41.4729 56.7197 40.6592ZM55.6592 45.7803L45.7803 55.6592C44.711 56.7285 42.7891 56.7285 41.7198 55.6592L27.5986 41.5381C26.8904 40.8298 26.5 39.8879 26.5 38.886V28C26.5 27.1732 27.1731 26.5 28 26.5H38.886C39.888 26.5 40.8299 26.8904 41.5381 27.5987L55.6592 41.7198C56.1939 42.2544 56.5 42.9942 56.5 43.75C56.5 44.5059 56.1939 45.2456 55.6592 45.7803Z" fill="#5FC400"/>
<path d="M31 28C29.3454 28 27.9999 29.3454 27.9999 31C27.9999 32.6546 29.3454 34 31 34C32.6545 34 34 32.6545 34 31C34 29.3454 32.6546 28 31 28ZM31 32.5C30.1731 32.5 29.5 31.8269 29.5 31C29.5 30.1731 30.1731 29.5 31 29.5C31.8268 29.5 32.4999 30.1731 32.4999 31C32.5 31.8269 31.8269 32.5 31 32.5Z" fill="#5FC400"/>
<path d="M37.9507 40.0726C38.8281 39.1952 38.8281 37.7677 37.9507 36.8903C37.6585 36.598 37.6585 36.1219 37.9507 35.8304L38.4824 35.2994C38.763 35.016 39.2574 35.016 39.5423 35.2994C39.6836 35.4415 39.762 35.6298 39.762 35.8297C39.762 36.0304 39.6844 36.2179 39.5423 36.3593C39.2493 36.6522 39.2493 37.1269 39.5416 37.4206C39.8346 37.7135 40.3099 37.7128 40.6029 37.4213C41.0277 36.9964 41.262 36.431 41.262 35.8297C41.262 35.2291 41.0277 34.6637 40.6029 34.2389C39.7533 33.3885 38.2693 33.3907 37.4212 34.2382L36.8894 34.7692C36.0135 35.6474 36.0135 37.0741 36.8902 37.9508C37.1824 38.2438 37.1824 38.7192 36.8902 39.0121L36.3592 39.5424C36.0772 39.8266 35.5842 39.8252 35.2993 39.5424C35.158 39.4003 35.0796 39.2121 35.0796 39.0121C35.0796 38.8115 35.1572 38.6232 35.2993 38.4826C35.5923 38.1896 35.5923 37.715 35.3 37.4213C35.007 37.1283 34.5317 37.1291 34.2387 37.4206C33.8139 37.8454 33.5796 38.4108 33.5796 39.0121C33.5796 39.6128 33.8139 40.1781 34.2387 40.603C34.6636 41.0278 35.229 41.2621 35.8296 41.2621C36.4309 41.2621 36.9963 41.0278 37.4204 40.603L37.9507 40.0726Z" fill="#5FC400"/>
<path d="M42.7239 42.7239C43.0169 42.4309 43.0169 41.9563 42.7239 41.6634L41.6634 40.6029L43.2542 39.012L44.8457 40.6029C45.1387 40.8959 45.6133 40.8959 45.9063 40.6029C46.1993 40.3099 46.1993 39.8353 45.9063 39.5423L43.7844 37.4212C43.4914 37.1282 43.0168 37.1282 42.7239 37.4212L37.4212 42.724C37.1282 43.017 37.1282 43.4916 37.4212 43.7845L39.5423 45.9063C39.6887 46.0528 39.8807 46.1261 40.0726 46.1261C40.2645 46.1261 40.4563 46.0528 40.6029 45.9063C40.8959 45.6133 40.8959 45.1387 40.6029 44.8458L39.012 43.2543L40.6029 41.6635L41.6634 42.724C41.8099 42.8704 42.0018 42.9437 42.1937 42.9437C42.3855 42.9436 42.5775 42.8704 42.7239 42.7239Z" fill="#5FC400"/>
<path d="M45.9062 42.7231C45.9062 42.7238 45.9062 42.7238 45.9062 42.7238L42.7231 45.9062C41.8478 46.7836 41.8478 48.2104 42.7238 49.0878C43.1625 49.5266 43.7389 49.7463 44.3146 49.7463C44.891 49.7463 45.4675 49.5266 45.9062 49.0878L49.0878 45.9062C49.9652 45.0287 49.9652 43.6013 49.0878 42.7231C48.2104 41.8472 46.7837 41.8472 45.9062 42.7231ZM48.0273 44.8457L44.8457 48.0274C44.5535 48.3196 44.0774 48.3211 43.7852 48.0274C43.4929 47.7351 43.4929 47.2591 43.7845 46.9668L46.9668 43.7852C47.2583 43.4922 47.7359 43.493 48.0273 43.7845C48.3196 44.0774 48.3196 44.5527 48.0273 44.8457Z" fill="#5FC400"/>
</g>
<defs>
<clipPath id="clip0_2_55">
<rect width="33" height="33" fill="white" transform="translate(25 25)"/>
</clipPath>
</defs>
</svg>
