<svg width="83" height="83" viewBox="0 0 83 83" fill="none" xmlns="http://www.w3.org/2000/svg">
<rect width="83" height="83" rx="20" fill="#FFE5DA"/>
<path d="M48.9062 25.5312H35.0938C34.5304 25.532 33.9903 25.7561 33.592 26.1545C33.1936 26.5528 32.9695 27.0929 32.9688 27.6562V56.3438C32.9695 56.9071 33.1936 57.4472 33.592 57.8455C33.9903 58.2439 34.5304 58.468 35.0938 58.4688H48.9062C49.4696 58.468 50.0097 58.2439 50.408 57.8455C50.8064 57.4472 51.0305 56.9071 51.0312 56.3438V27.6562C51.0305 27.0929 50.8064 26.5528 50.408 26.1545C50.0097 25.7561 49.4696 25.532 48.9062 25.5312ZM44.4862 26.5938L44.1874 27.6562H39.7588L39.4932 26.5938H44.4862ZM49.9688 56.3438C49.9684 56.6254 49.8563 56.8955 49.6571 57.0946C49.458 57.2938 49.1879 57.4059 48.9062 57.4062H35.0938C34.8121 57.4059 34.542 57.2938 34.3429 57.0946C34.1437 56.8955 34.0316 56.6254 34.0312 56.3438V27.6562C34.0316 27.3746 34.1437 27.1045 34.3429 26.9054C34.542 26.7062 34.8121 26.5941 35.0938 26.5938H38.3975L38.8284 28.3163C38.8572 28.4313 38.9235 28.5333 39.0169 28.6062C39.1102 28.6791 39.2253 28.7187 39.3438 28.7188H44.5898C44.7056 28.7187 44.8182 28.6809 44.9105 28.611C45.0028 28.5412 45.0698 28.443 45.1012 28.3316L45.5899 26.5938H48.9062C49.1879 26.5941 49.458 26.7062 49.6571 26.9054C49.8563 27.1045 49.9684 27.3746 49.9688 27.6562V56.3438Z" fill="#BB3800"/>
<path d="M39.3438 55.2812H35.625C35.4841 55.2812 35.349 55.3372 35.2493 55.4368C35.1497 55.5365 35.0938 55.6716 35.0938 55.8125C35.0938 55.9534 35.1497 56.0885 35.2493 56.1882C35.349 56.2878 35.4841 56.3438 35.625 56.3438H39.3438C39.4846 56.3438 39.6198 56.2878 39.7194 56.1882C39.819 56.0885 39.875 55.9534 39.875 55.8125C39.875 55.6716 39.819 55.5365 39.7194 55.4368C39.6198 55.3372 39.4846 55.2812 39.3438 55.2812Z" fill="#BB3800"/>
<path d="M41.4688 55.2812H40.9375C40.7966 55.2812 40.6615 55.3372 40.5618 55.4368C40.4622 55.5365 40.4062 55.6716 40.4062 55.8125C40.4062 55.9534 40.4622 56.0885 40.5618 56.1882C40.6615 56.2878 40.7966 56.3438 40.9375 56.3438H41.4688C41.6096 56.3438 41.7448 56.2878 41.8444 56.1882C41.944 56.0885 42 55.9534 42 55.8125C42 55.6716 41.944 55.5365 41.8444 55.4368C41.7448 55.3372 41.6096 55.2812 41.4688 55.2812Z" fill="#BB3800"/>
<path d="M43.8671 38.8882C43.8073 38.8523 43.741 38.8286 43.672 38.8183C43.6029 38.808 43.5326 38.8114 43.4649 38.8284C43.3972 38.8453 43.3335 38.8754 43.2775 38.9169C43.2214 38.9584 43.1741 39.0106 43.1382 39.0704L39.9507 44.3829C39.8782 44.5038 39.8567 44.6484 39.8909 44.7851C39.925 44.9218 40.0121 45.0393 40.1329 45.1118C40.2537 45.1843 40.3984 45.2058 40.5351 45.1717C40.6718 45.1375 40.7893 45.0504 40.8618 44.9296L44.0493 39.6171C44.0852 39.5573 44.109 39.491 44.1192 39.4219C44.1295 39.3529 44.1261 39.2826 44.1092 39.2149C44.0922 39.1472 44.0621 39.0835 44.0206 39.0275C43.9791 38.9714 43.9269 38.9241 43.8671 38.8882Z" fill="#BB3800"/>
<path d="M45.6023 39.0117C45.5587 38.9572 45.5048 38.9119 45.4437 38.8782C45.3826 38.8446 45.3154 38.8233 45.246 38.8156C45.106 38.8001 44.9655 38.8408 44.8555 38.9289C44.7454 39.017 44.6749 39.1451 44.6594 39.2852C44.6438 39.4252 44.6846 39.5657 44.7726 39.6758L46.632 42L44.7726 44.3242C44.6846 44.4342 44.6438 44.5747 44.6594 44.7148C44.6749 44.8549 44.7454 44.983 44.8555 45.0711C44.9655 45.1591 45.106 45.1999 45.246 45.1844C45.3861 45.1688 45.5143 45.0983 45.6023 44.9883L47.7273 42.332C47.8028 42.2378 47.8439 42.1207 47.8439 42C47.8439 41.8793 47.8028 41.7622 47.7273 41.668L45.6023 39.0117Z" fill="#BB3800"/>
<path d="M38.3977 44.9883C38.4857 45.0983 38.6139 45.1688 38.754 45.1843C38.894 45.1999 39.0345 45.1591 39.1445 45.0711C39.2546 44.983 39.3251 44.8549 39.3406 44.7148C39.3562 44.5747 39.3154 44.4342 39.2273 44.3242L37.368 42L39.2273 39.6758C39.271 39.6213 39.3034 39.5588 39.3228 39.4917C39.3423 39.4247 39.3483 39.3545 39.3406 39.2852C39.3329 39.2158 39.3117 39.1487 39.278 39.0875C39.2444 39.0264 39.199 38.9725 39.1445 38.9289C39.0901 38.8853 39.0275 38.8528 38.9605 38.8334C38.8935 38.814 38.8233 38.8079 38.754 38.8156C38.6846 38.8233 38.6174 38.8446 38.5563 38.8782C38.4952 38.9119 38.4413 38.9572 38.3977 39.0117L36.2727 41.668C36.1972 41.7622 36.1561 41.8793 36.1561 42C36.1561 42.1207 36.1972 42.2378 36.2727 42.332L38.3977 44.9883Z" fill="#BB3800"/>
</svg>
