<svg width="83" height="83" viewBox="0 0 83 83" fill="none" xmlns="http://www.w3.org/2000/svg">
<rect width="83" height="83" rx="20" fill="#EFEAFF"/>
<path d="M24.8438 28.2031H26.125V29.4844H24.8438V28.2031Z" fill="#4628A4"/>
<path d="M27.4062 28.2031H28.6875V29.4844H27.4062V28.2031Z" fill="#4628A4"/>
<path d="M29.9688 28.2031H31.25V29.4844H29.9688V28.2031Z" fill="#4628A4"/>
<path d="M25.4844 44.2188H39.5781C39.748 44.2188 39.911 44.1513 40.0311 44.0311C40.1513 43.911 40.2188 43.748 40.2188 43.5781V33.3281C40.2188 33.1582 40.1513 32.9953 40.0311 32.8751C39.911 32.755 39.748 32.6875 39.5781 32.6875H25.4844C25.3145 32.6875 25.1515 32.755 25.0314 32.8751C24.9112 32.9953 24.8438 33.1582 24.8438 33.3281V43.5781C24.8438 43.748 24.9112 43.911 25.0314 44.0311C25.1515 44.1513 25.3145 44.2188 25.4844 44.2188ZM26.125 33.9688H38.9375V42.9375H26.125V33.9688Z" fill="#4628A4"/>
<path d="M25.4844 56.3906H39.5781C39.748 56.3906 39.911 56.3231 40.0311 56.203C40.1513 56.0829 40.2188 55.9199 40.2188 55.75V46.1406C40.2188 45.9707 40.1513 45.8078 40.0311 45.6876C39.911 45.5675 39.748 45.5 39.5781 45.5H25.4844C25.3145 45.5 25.1515 45.5675 25.0314 45.6876C24.9112 45.8078 24.8438 45.9707 24.8438 46.1406V55.75C24.8438 55.9199 24.9112 56.0829 25.0314 56.203C25.1515 56.3231 25.3145 56.3906 25.4844 56.3906ZM26.125 46.7812H38.9375V55.1094H26.125V46.7812Z" fill="#4628A4"/>
<path d="M51.1094 56.3906H52.3906V57.6719H51.1094V56.3906Z" fill="#4628A4"/>
<path d="M56.2344 56.3906H57.5156V57.6719H56.2344V56.3906Z" fill="#4628A4"/>
<path d="M54.3125 60.875C53.9727 60.875 53.6468 60.74 53.4065 60.4997C53.1662 60.2595 53.0312 59.9336 53.0312 59.5938H51.75C51.75 60.2734 52.02 60.9251 52.5005 61.4057C52.9811 61.8863 53.6329 62.1562 54.3125 62.1562C54.9921 62.1562 55.6439 61.8863 56.1245 61.4057C56.605 60.9251 56.875 60.2734 56.875 59.5938H55.5938C55.5938 59.9336 55.4588 60.2595 55.2185 60.4997C54.9782 60.74 54.6523 60.875 54.3125 60.875Z" fill="#4628A4"/>
<path d="M35.414 37.897L30.9297 35.3345C30.8322 35.2783 30.7216 35.2487 30.609 35.2487C30.4965 35.2488 30.3859 35.2785 30.2885 35.3349C30.1911 35.3912 30.1102 35.4723 30.0541 35.5699C29.998 35.6674 29.9685 35.778 29.9687 35.8906V41.0156C29.9685 41.1282 29.998 41.2388 30.0541 41.3364C30.1102 41.4339 30.1911 41.515 30.2885 41.5714C30.3859 41.6277 30.4965 41.6574 30.609 41.6575C30.7216 41.6575 30.8322 41.6279 30.9297 41.5717L35.414 39.0092C35.512 38.9531 35.5935 38.8722 35.6501 38.7745C35.7067 38.6769 35.7366 38.566 35.7366 38.4531C35.7366 38.3402 35.7067 38.2293 35.6501 38.1317C35.5935 38.034 35.512 37.9531 35.414 37.897ZM31.25 39.9112V36.995L33.8022 38.4531L31.25 39.9112Z" fill="#4628A4"/>
<path d="M54.9535 44.8594C55.0753 44.8594 55.1947 44.8247 55.2975 44.7594C55.4003 44.694 55.4824 44.6007 55.534 44.4903C55.5857 44.3799 55.6048 44.2571 55.5891 44.1363C55.5734 44.0155 55.5236 43.9016 55.4455 43.8081L52.2424 39.9644C52.1854 39.8959 52.1148 39.8402 52.035 39.8006C51.9553 39.761 51.8681 39.7384 51.7792 39.7344C51.6902 39.729 51.601 39.7429 51.5178 39.7752C51.4347 39.8074 51.3595 39.8573 51.2974 39.9214L50.3577 40.8619L49.0335 39.318C48.9716 39.2507 48.8965 39.197 48.8128 39.1602C48.7291 39.1235 48.6387 39.1045 48.5472 39.1045C48.4558 39.1045 48.3654 39.1235 48.2817 39.1602C48.198 39.197 48.1229 39.2507 48.061 39.318L44.2173 43.8023C44.1377 43.8954 44.0865 44.0092 44.0696 44.1305C44.0527 44.2517 44.0709 44.3753 44.1221 44.4865C44.1733 44.5977 44.2552 44.6919 44.3582 44.758C44.4613 44.8241 44.5811 44.8593 44.7035 44.8594H54.9535ZM46.0962 43.5781L48.5472 40.7184L50.9983 43.5781H46.0962ZM51.7074 41.3238L53.5858 43.5781H52.6857L51.1937 41.8375L51.7074 41.3238Z" fill="#4628A4"/>
<path d="M60.0781 26.2812H22.9219C22.752 26.2812 22.589 26.3487 22.4689 26.4689C22.3487 26.589 22.2812 26.752 22.2812 26.9219V58.3125C22.2812 58.4824 22.3487 58.6453 22.4689 58.7655C22.589 58.8856 22.752 58.9531 22.9219 58.9531H47.9389C48.1046 60.5873 48.8916 62.0954 50.1375 63.1659C51.3833 64.2364 52.9927 64.7874 54.6332 64.7052C56.2737 64.623 57.82 63.9137 58.9525 62.724C60.085 61.5343 60.7173 59.9551 60.7188 58.3125V26.9219C60.7188 26.752 60.6513 26.589 60.5311 26.4689C60.411 26.3487 60.248 26.2812 60.0781 26.2812ZM54.3125 63.4375C53.2989 63.4375 52.308 63.1369 51.4652 62.5738C50.6224 62.0106 49.9655 61.2102 49.5776 60.2738C49.1897 59.3373 49.0882 58.3068 49.286 57.3127C49.4837 56.3185 49.9718 55.4053 50.6886 54.6886C51.4053 53.9718 52.3185 53.4837 53.3127 53.286C54.3068 53.0882 55.3373 53.1897 56.2738 53.5776C57.2102 53.9655 58.0106 54.6224 58.5738 55.4652C59.1369 56.308 59.4375 57.2989 59.4375 58.3125C59.436 59.6713 58.8955 60.9739 57.9347 61.9347C56.9739 62.8955 55.6713 63.436 54.3125 63.4375ZM48.773 55.1094H42.7812V33.9687H56.875V52.445C55.4336 51.812 53.8092 51.7339 52.3138 52.2257C50.8183 52.7175 49.5574 53.7445 48.773 55.1094ZM59.4375 54.4854C59.073 53.9987 58.6417 53.5658 58.1562 53.1997V33.3281C58.1562 33.1582 58.0888 32.9953 57.9686 32.8751C57.8485 32.755 57.6855 32.6875 57.5156 32.6875H42.1406C41.9707 32.6875 41.8078 32.755 41.6876 32.8751C41.5675 32.9953 41.5 33.1582 41.5 33.3281V55.75C41.5 55.9199 41.5675 56.0828 41.6876 56.203C41.8078 56.3231 41.9707 56.3906 42.1406 56.3906H48.2016C48.07 56.8075 47.982 57.2369 47.9389 57.6719H23.5625V31.4062H59.4375V54.4854ZM59.4375 30.125H23.5625V27.5625H59.4375V30.125Z" fill="#4628A4"/>
<path d="M27.4062 48.0625H37.6562V49.3438H27.4062V48.0625Z" fill="#4628A4"/>
<path d="M27.4062 50.625H37.6562V51.9062H27.4062V50.625Z" fill="#4628A4"/>
</svg>
