<svg width="83" height="83" viewBox="0 0 83 83" fill="none" xmlns="http://www.w3.org/2000/svg">
<rect width="83" height="83" rx="20" fill="#DAE6FF"/>
<g clip-path="url(#clip0_2_70)">
<path d="M40.8125 41.5C40.433 41.5 40.125 41.192 40.125 40.8125V33.9375C40.125 33.558 40.433 33.25 40.8125 33.25H42.875C44.3916 33.25 45.625 34.4834 45.625 36C45.625 37.5166 44.3916 38.75 42.875 38.75H41.5V40.8125C41.5 41.192 41.192 41.5 40.8125 41.5ZM41.5 37.375H42.875C43.634 37.375 44.25 36.7576 44.25 36C44.25 35.2424 43.634 34.625 42.875 34.625H41.5V37.375Z" fill="#00329B"/>
<path d="M44.9375 41.5C44.7615 41.5 44.5855 41.4326 44.4507 41.2993L41.7007 38.5493C41.4326 38.2811 41.4326 37.8453 41.7007 37.5771C41.9689 37.309 42.4047 37.309 42.6729 37.5771L45.4229 40.3271C45.691 40.5953 45.691 41.0311 45.4229 41.2993C45.2895 41.4326 45.1135 41.5 44.9375 41.5Z" fill="#00329B"/>
<path d="M34.625 41.5C34.3211 41.5 34.0544 41.3006 33.9664 41.0105L31.9039 34.1355C31.7939 33.7725 32.0001 33.3888 32.3645 33.2788C32.7275 33.1716 33.1111 33.3765 33.2211 33.7395L34.625 38.42L36.0289 33.7408C36.1375 33.3765 36.5239 33.173 36.8841 33.2802C37.2485 33.3902 37.4547 33.7725 37.3447 34.1368L35.2822 41.0118C35.1956 41.3006 34.9289 41.5 34.625 41.5Z" fill="#00329B"/>
<path d="M50.4375 37.375C49.3004 37.375 48.375 36.4496 48.375 35.3125C48.375 34.1754 49.3004 33.25 50.4375 33.25C51.5746 33.25 52.5 34.1754 52.5 35.3125C52.5 36.4496 51.5746 37.375 50.4375 37.375ZM50.4375 34.625C50.0594 34.625 49.75 34.933 49.75 35.3125C49.75 35.692 50.0594 36 50.4375 36C50.8156 36 51.125 35.692 51.125 35.3125C51.125 34.933 50.8156 34.625 50.4375 34.625Z" fill="#00329B"/>
<path d="M54.5625 48.375H45.8587C45.5631 48.375 45.3005 48.1853 45.2056 47.9048L44.602 46.0898C44.5071 45.8161 44.2417 45.625 43.9475 45.625H39.0525C38.7583 45.625 38.4943 45.8161 38.3939 46.1008L37.793 47.9061C37.6995 48.1853 37.4369 48.375 37.1412 48.375H28.4375C26.5414 48.375 25 46.8323 25 44.9375V32.5625C25 30.6678 26.5414 29.125 28.4375 29.125H54.5625C56.4586 29.125 58 30.6678 58 32.5625V44.9375C58 46.8323 56.4586 48.375 54.5625 48.375ZM46.3538 47H54.5625C55.6996 47 56.625 46.0746 56.625 44.9375V32.5625C56.625 31.4254 55.6996 30.5 54.5625 30.5H28.4375C27.3004 30.5 26.375 31.4254 26.375 32.5625V44.9375C26.375 46.0746 27.3004 47 28.4375 47H36.6463L37.0931 45.6553C37.3901 44.811 38.1753 44.25 39.0525 44.25H43.9489C44.8261 44.25 45.6112 44.811 45.9041 45.6456L46.3538 47Z" fill="#00329B"/>
<path d="M53.1875 30.5C52.808 30.5 52.5 30.192 52.5 29.8125V28.4375C52.5 27.3004 51.5746 26.375 50.4375 26.375H32.5625C31.4254 26.375 30.5 27.3004 30.5 28.4375V29.8125C30.5 30.192 30.192 30.5 29.8125 30.5C29.433 30.5 29.125 30.192 29.125 29.8125V28.4375C29.125 26.5428 30.6664 25 32.5625 25H50.4375C52.3336 25 53.875 26.5428 53.875 28.4375V29.8125C53.875 30.192 53.567 30.5 53.1875 30.5Z" fill="#00329B"/>
<path d="M40.125 58C39.9174 58 39.7097 57.9052 39.575 57.725C39.3481 57.4212 39.41 56.9908 39.7139 56.7625L41.731 55.25L39.7125 53.7375C39.4086 53.5093 39.3467 53.0789 39.5736 52.775C39.8032 52.4698 40.2336 52.412 40.5361 52.6375L43.2861 54.7C43.4594 54.8293 43.5611 55.0342 43.5611 55.25C43.5611 55.4659 43.4594 55.6708 43.2861 55.8L40.5361 57.8625C40.4137 57.9547 40.268 58 40.125 58Z" fill="#00329B"/>
<path d="M41.5 55.9375C40.0906 55.9375 38.6537 55.8852 37.2306 55.7848C31.3181 55.3586 25 53.9107 25 51.125C25 50.8348 25.0756 50.5365 25.2241 50.2395C25.3946 49.8985 25.8099 49.7623 26.1481 49.9328C26.4864 50.1033 26.6239 50.5158 26.4547 50.8555C26.4025 50.96 26.375 51.0507 26.375 51.125C26.375 52.1328 29.8551 53.875 37.3282 54.414C38.7294 54.513 40.1209 54.6106 41.5289 54.5625C41.8534 54.5625 42.1655 54.5625 42.4762 54.5501C42.8736 54.5336 43.1761 54.8292 43.1926 55.2087C43.2077 55.5882 42.9121 55.9086 42.534 55.9237C42.193 55.9375 41.8534 55.9375 41.5 55.9375Z" fill="#00329B"/>
<path d="M46.2974 55.7313C45.944 55.7313 45.6429 55.459 45.614 55.1001C45.5837 54.722 45.8642 54.3893 46.2424 54.3576C53.3264 53.7788 56.625 52.0861 56.625 51.125C56.625 51.0508 56.5975 50.96 56.5452 50.8555C56.3761 50.5159 56.5136 50.1034 56.8519 49.9329C57.1887 49.761 57.604 49.8985 57.7759 50.2395C57.9244 50.5365 58 50.8349 58 51.125C58 54.5116 49.0872 55.5058 46.3551 55.7299C46.3372 55.7313 46.3166 55.7313 46.2974 55.7313Z" fill="#00329B"/>
</g>
<defs>
<clipPath id="clip0_2_70">
<rect width="33" height="33" fill="white" transform="translate(25 25)"/>
</clipPath>
</defs>
</svg>
